# xmcd
# 
# Track frame offsets:
#     150
#     12780
#     27395
#     43945
#     68687
#     96490
#     118722
#     130245
#     145280
#     159197
#     171455
#     182877
#     205252
#     231000
#     249192
#     273622
#     301897
#     316575
# 
# Disc length: 4581
# 
# Revision: 15
# Processed by: cddbd v1.5.2PL0 Copyright (c) Steve Scherf et al.
# Submitted via: fre:ac v1.0.17
# 
DISCID=f911e312
DTITLE=Bob Dylan - Les indispensables
DYEAR=1997
DGENRE=Folk/Rock
TTITLE0=Blowin' In The Wind
TTITLE1=The Times They Are A-Changin'
TTITLE2=Don't Think Twice, It's All Right
TTITLE3=Mr. Tambourine Man
TTITLE4=Like A Rolling Stone
TTITLE5=Just Like A Woman
TTITLE6=All Along The Watchtower
TTITLE7=Lay Lady Lay
TTITLE8=I Shall Be Released
TTITLE9=If Not For You
TTITLE10=Knockin' On Heaven's Door
TTITLE11=Forever Young
TTITLE12=Tangled Up In Blue
TTITLE13=Oh, Sister
TTITLE14=Gotta Serve Somebody
TTITLE15=Jokerman
TTITLE16=Everything Is Broken
TTITLE17=Shelter From The Storm
EXTD=
EXTT0=
EXTT1=
EXTT2=
EXTT3=
EXTT4=
EXTT5=
EXTT6=
EXTT7=
EXTT8=
EXTT9=
EXTT10=
EXTT11=
EXTT12=
EXTT13=
EXTT14=
EXTT15=
EXTT16=
EXTT17=
PLAYORDER=
